<svg width="372" height="137" viewBox="0 0 372 137" fill="none" xmlns="http://www.w3.org/2000/svg">
<g clip-path="url(#clip0_3752_7751)">
<path d="M154.933 0.503906V22.8937C151.833 19.4477 147.439 17.5515 142.106 17.5515C131.513 17.5515 124.457 25.2184 124.457 36.7506C124.457 48.2828 131.522 55.9497 142.106 55.9497C147.959 55.9497 152.873 53.4518 155.972 49.3221L157.951 55.348H162.6V0.503906H154.933ZM143.574 53.2877C136.773 53.2877 132.206 46.6601 132.206 36.5865C132.206 26.5129 136.773 20.0494 143.574 20.0494C150.375 20.0494 154.769 26.7682 154.769 36.5865C154.769 46.4048 150.375 53.2877 143.574 53.2877Z" fill="white"/>
<path d="M112.834 18.0703V40.7974C112.834 48.3731 108.704 53.2869 102.241 53.2869C95.7773 53.2869 91.8208 48.5555 91.8208 40.9706V18.0703H84.3271V42.2652C84.3271 50.7069 90.6083 55.958 100.08 55.958C106.024 55.958 110.847 53.8065 113.855 50.1052L115.578 55.3563H120.401V18.0703H112.825H112.834Z" fill="white"/>
<path d="M61.2524 17.5508C49.8843 17.5508 42.2266 25.2176 42.2266 36.7499C42.2266 48.2821 49.8934 55.9489 61.2524 55.9489C72.6114 55.9489 80.1962 48.2 80.1962 36.7499C80.1962 25.2997 72.6205 17.5508 61.2524 17.5508ZM61.2524 53.287C54.5337 53.287 49.9755 46.6594 49.9755 36.5858C49.9755 26.5122 54.5428 20.0487 61.2524 20.0487C67.9621 20.0487 72.5294 26.7674 72.5294 36.5858C72.5294 46.4041 68.0532 53.287 61.2524 53.287Z" fill="white"/>
<path d="M10.4566 51.7379V0.503906H2.44336V55.3571H42.3092V51.7379H10.4566Z" fill="white"/>
<path d="M194.253 114.187L195.201 116.949C192.876 118.152 191.235 118.845 187.871 118.845C181.581 118.845 174.762 115.053 174.762 107.03V64.7031H182.347V106.693C182.347 111.953 185.793 115.399 190.196 115.399C192.694 115.399 194.253 114.196 194.253 114.196V114.187Z" fill="white"/>
<path d="M265.032 118.234V80.9024H269.691L271.414 86.1626C274.176 82.5434 278.825 80.3828 284.523 80.3828C290.558 80.3828 295.299 82.8807 297.714 87.1107C300.559 82.8898 305.39 80.3828 311.599 80.3828C320.824 80.3828 327.981 86.1626 327.981 94.6955V118.234H319.183V96.0721C319.183 88.2229 315.391 82.8807 309.529 82.8807C303.667 82.8807 299.702 88.4873 299.702 96.3273V118.225H292.026V96.063C292.026 88.2138 288.233 82.8716 282.454 82.8716C276.674 82.8716 272.535 88.4781 272.535 96.3182V118.216H265.032V118.234Z" fill="white"/>
<path d="M224.601 80.9017H232.186V103.838C232.186 111.423 236.325 116.164 242.533 116.164C248.741 116.164 253.135 111.25 253.135 103.665V80.9017H260.72V118.233H256.062L254.339 112.973C251.239 116.683 246.489 118.835 240.372 118.835C230.891 118.835 224.592 113.575 224.592 105.124V80.8926L224.601 80.9017Z" fill="white"/>
<path d="M198.738 118.233V80.9011H203.397L205.895 88.5771C208.566 83.4902 213.826 80.3906 220.554 80.3906V87.1185C220.554 87.1185 219.177 86.4257 217.281 86.4257C211.419 86.4257 206.241 90.6465 206.241 97.1192V118.242H198.738V118.233Z" fill="white"/>
<path d="M151.059 116.165C143.985 116.165 139.682 109.528 139.682 99.6092C139.682 89.6906 143.994 82.8807 151.059 82.8807C156.839 82.8807 161.06 87.448 161.06 93.5742H168.298C168.298 85.8162 161.142 80.3828 151.141 80.3828C139.418 80.3828 131.915 88.0588 131.915 99.6092C131.915 111.16 139.418 118.836 151.141 118.836C161.142 118.836 168.298 113.229 168.298 105.471H161.06C161.06 111.506 156.839 116.165 151.059 116.165Z" fill="white"/>
<path d="M128.551 99.9557C128.551 87.9676 121.14 80.3828 109.671 80.3828C98.2029 80.3828 90.618 88.0588 90.618 99.6092C90.618 111.16 98.294 118.836 110.191 118.836C119.936 118.836 127.521 113.667 127.521 107.194H120.711C120.711 112.199 116.226 116.165 110.537 116.165C103.463 116.165 98.7225 110.038 98.3761 100.813H128.551V99.9465V99.9557ZM98.3761 98.2327C98.7225 89.0889 103.035 82.8807 109.671 82.8807C116.308 82.8807 120.62 89.0069 120.875 98.2327H98.3761Z" fill="white"/>
<path d="M68.9757 80.3828C63.1139 80.3828 58.2822 82.7986 55.1826 86.9375L53.2864 80.9024H48.5459V136.913H56.1307V113.32C59.1482 116.857 63.6335 118.836 68.9757 118.836C79.578 118.836 86.6523 111.078 86.6523 99.6092C86.6523 88.1408 79.578 80.3828 68.9757 80.3828ZM67.5991 116.165C60.7892 116.165 56.2219 109.528 56.2219 99.6092C56.2219 89.6906 60.7892 82.8807 67.5991 82.8807C74.409 82.8807 78.9763 89.6086 78.9763 99.6092C78.9763 109.61 74.3179 116.165 67.5991 116.165Z" fill="white"/>
<path d="M21.8165 94.1844C10.6124 90.8205 0.949079 86.946 0.949079 77.8023C0.949079 69.1782 9.482 63.3164 21.8985 63.3164C34.315 63.3164 43.0211 69.4335 43.0211 78.9236H34.8346C34.8346 71.3388 29.5745 66.2519 20.9504 66.2519C13.2744 66.2519 8.01427 70.1354 8.01427 75.3865C8.01427 81.5036 15.5991 84.0926 24.9981 87.0281C33.4489 89.6171 44.2245 93.4916 44.2245 103.41C44.2245 112.545 35.254 118.844 21.9805 118.844C8.70711 118.844 0.000976562 112.463 0.000976562 103.146H8.10543C8.10543 110.731 13.8852 115.818 23.0198 115.818C31.5527 115.818 37.2413 111.506 37.2413 106.072C37.2413 99.089 28.362 96.1536 21.8073 94.1753L21.8165 94.1844Z" fill="white"/>
<path d="M351.838 73.9L371.721 71.5207L351.838 69.1322L359.195 58.2746L348.438 65.5677L346.077 45.8672L343.697 65.7135L332.712 58.2746L339.941 68.9498L150.986 70.8916V72.1406L339.941 74.0824L332.712 84.7576L343.697 77.3187L346.077 97.165L348.438 77.4645L359.195 84.7576L351.838 73.9Z" fill="white"/>
</g>
<defs>
<clipPath id="clip0_3752_7751">
<rect width="371.72" height="136.408" fill="white" transform="translate(0 0.503906)"/>
</clipPath>
</defs>
</svg>
