<svg width="372" height="137" viewBox="0 0 372 137" fill="none" xmlns="http://www.w3.org/2000/svg">
    <g clip-path="url(#clip0_2951_6609)">
        <path d="M154.931 0.591797V22.9816C151.832 19.5356 147.437 17.6394 142.104 17.6394C131.511 17.6394 124.455 25.3063 124.455 36.8385C124.455 48.3707 131.52 56.0376 142.104 56.0376C147.957 56.0376 152.871 53.5397 155.97 49.41L157.949 55.4359H162.598V0.591797H154.931ZM143.572 53.3756C136.771 53.3756 132.204 46.748 132.204 36.6744C132.204 26.6008 136.771 20.1373 143.572 20.1373C150.373 20.1373 154.767 26.8561 154.767 36.6744C154.767 46.4927 150.373 53.3756 143.572 53.3756Z" fill="white"/>
        <path d="M112.831 18.1582V40.8853C112.831 48.461 108.701 53.3747 102.238 53.3747C95.7744 53.3747 91.8179 48.6433 91.8179 41.0585V18.1582H84.3242V42.3531C84.3242 50.7948 90.6054 56.0458 100.077 56.0458C106.021 56.0458 110.844 53.8944 113.852 50.1931L115.575 55.4442H120.398V18.1582H112.822H112.831Z" fill="white"/>
        <path d="M61.2505 17.6396C49.8824 17.6396 42.2246 25.3065 42.2246 36.8387C42.2246 48.3709 49.8915 56.0378 61.2505 56.0378C72.6095 56.0378 80.1943 48.2889 80.1943 36.8387C80.1943 25.3886 72.6186 17.6396 61.2505 17.6396ZM61.2505 53.3758C54.5317 53.3758 49.9735 46.7482 49.9735 36.6746C49.9735 26.601 54.5408 20.1375 61.2505 20.1375C67.9601 20.1375 72.5274 26.8563 72.5274 36.6746C72.5274 46.493 68.0513 53.3758 61.2505 53.3758Z" fill="white"/>
        <path d="M10.4547 51.8258V0.591797H2.44141V55.445H42.3073V51.8258H10.4547Z" fill="white"/>
        <path d="M194.253 114.274L195.201 117.036C192.876 118.239 191.235 118.932 187.871 118.932C181.581 118.932 174.762 115.14 174.762 107.117V64.79H182.347V106.78C182.347 112.04 185.793 115.486 190.196 115.486C192.694 115.486 194.253 114.283 194.253 114.283V114.274Z" fill="white"/>
        <path d="M265.031 118.321V80.9894H269.69L271.413 86.2495C274.175 82.6303 278.824 80.4697 284.522 80.4697C290.557 80.4697 295.298 82.9676 297.713 87.1976C300.558 82.9767 305.389 80.4697 311.598 80.4697C320.823 80.4697 327.98 86.2495 327.98 94.7824V118.321H319.182V96.159C319.182 88.3098 315.39 82.9676 309.528 82.9676C303.666 82.9676 299.701 88.5742 299.701 96.4143V118.312H292.025V96.1499C292.025 88.3007 288.232 82.9585 282.453 82.9585C276.673 82.9585 272.534 88.5651 272.534 96.4051V118.303H265.031V118.321Z" fill="white"/>
        <path d="M224.599 80.9896H232.184V103.926C232.184 111.511 236.323 116.252 242.531 116.252C248.739 116.252 253.133 111.338 253.133 103.753V80.9896H260.718V118.321H256.06L254.337 113.061C251.237 116.771 246.487 118.923 240.37 118.923C230.889 118.923 224.59 113.663 224.59 105.212V80.9805L224.599 80.9896Z" fill="white"/>
        <path d="M198.738 118.321V80.989H203.397L205.895 88.665C208.566 83.5781 213.826 80.4785 220.554 80.4785V87.2064C220.554 87.2064 219.177 86.5136 217.281 86.5136C211.419 86.5136 206.241 90.7344 206.241 97.2071V118.33H198.738V118.321Z" fill="white"/>
        <path d="M151.058 116.251C143.984 116.251 139.681 109.615 139.681 99.6961C139.681 89.7775 143.993 82.9676 151.058 82.9676C156.838 82.9676 161.059 87.5349 161.059 93.6611H168.298C168.298 85.9031 161.141 80.4697 151.14 80.4697C139.417 80.4697 131.914 88.1457 131.914 99.6961C131.914 111.247 139.417 118.923 151.14 118.923C161.141 118.923 168.298 113.316 168.298 105.558H161.059C161.059 111.593 156.838 116.251 151.058 116.251Z" fill="white"/>
        <path d="M128.55 100.043C128.55 88.0545 121.139 80.4697 109.67 80.4697C98.202 80.4697 90.6172 88.1457 90.6172 99.6961C90.6172 111.247 98.2932 118.923 110.19 118.923C119.935 118.923 127.52 113.754 127.52 107.281H120.71C120.71 112.286 116.225 116.251 110.536 116.251C103.462 116.251 98.7216 110.125 98.3752 100.9H128.55V100.033V100.043ZM98.3752 98.3196C98.7216 89.1759 103.034 82.9676 109.67 82.9676C116.307 82.9676 120.619 89.0938 120.874 98.3196H98.3752Z" fill="white"/>
        <path d="M68.9747 80.4697C63.1129 80.4697 58.2812 82.8856 55.1816 87.0244L53.2854 80.9894H48.5449V137H56.1297V113.407C59.1473 116.944 63.6325 118.923 68.9747 118.923C79.577 118.923 86.6514 111.165 86.6514 99.6961C86.6514 88.2278 79.577 80.4697 68.9747 80.4697ZM67.5981 116.251C60.7882 116.251 56.2209 109.615 56.2209 99.6961C56.2209 89.7775 60.7882 82.9676 67.5981 82.9676C74.4081 82.9676 78.9754 89.6955 78.9754 99.6961C78.9754 109.697 74.3169 116.251 67.5981 116.251Z" fill="white"/>
        <path d="M21.8155 94.2714C10.6115 90.9074 0.948102 87.033 0.948102 77.8892C0.948102 69.2651 9.48103 63.4033 21.8975 63.4033C34.314 63.4033 43.0201 69.5204 43.0201 79.0105H34.8336C34.8336 71.4257 29.5735 66.3388 20.9494 66.3388C13.2734 66.3388 8.01329 70.2224 8.01329 75.4734C8.01329 81.5905 15.5981 84.1795 24.9971 87.115C33.448 89.7041 44.2235 93.5785 44.2235 103.497C44.2235 112.632 35.253 118.931 21.9796 118.931C8.70613 118.931 0 112.55 0 103.233H8.10445C8.10445 110.818 13.8842 115.904 23.0188 115.904C31.5518 115.904 37.2404 111.592 37.2404 106.159C37.2404 99.176 28.361 96.2405 21.8064 94.2622L21.8155 94.2714Z" fill="white"/>
        <path d="M351.838 73.9879L371.721 71.6085L351.838 69.2201L359.195 58.3625L348.438 65.6556L346.077 45.9551L343.697 65.8014L332.712 58.3625L339.941 69.0377L150.986 70.9795V72.2285L339.941 74.1702L332.712 84.8455L343.697 77.4066L346.077 97.2529L348.438 77.5524L359.195 84.8455L351.838 73.9879Z" fill="url(#paint0_linear_2951_6609)"/>
        <path d="M351.838 73.9879L371.721 71.6085L351.838 69.2201L359.195 58.3625L348.438 65.6556L346.077 45.9551L343.697 65.8014L332.712 58.3625L339.941 69.0377L150.986 70.9795V72.2285L339.941 74.1702L332.712 84.8455L343.697 77.4066L346.077 97.2529L348.438 77.5524L359.195 84.8455L351.838 73.9879Z" fill="white"/>
    </g>
    <defs>
        <linearGradient id="paint0_linear_2951_6609" x1="150.986" y1="71.6085" x2="371.721" y2="71.6085" gradientUnits="userSpaceOnUse">
            <stop offset="0.25" stop-color="#101820"/>
            <stop offset="0.49" stop-color="#0077C8"/>
            <stop offset="0.52" stop-color="#2280D0"/>
            <stop offset="0.58" stop-color="#558EDD"/>
            <stop offset="0.63" stop-color="#7D9AE7"/>
            <stop offset="0.68" stop-color="#9AA2EE"/>
            <stop offset="0.73" stop-color="#ABA7F3"/>
            <stop offset="0.76" stop-color="#B2A9F5"/>
            <stop offset="0.77" stop-color="#B4ABF4"/>
            <stop offset="1" stop-color="#DDDAE8"/>
        </linearGradient>
        <clipPath id="clip0_2951_6609">
            <rect width="371.72" height="136.408" fill="white" transform="translate(0 0.591797)"/>
        </clipPath>
    </defs>
</svg>
