<svg width="221" height="37" viewBox="0 0 221 37" fill="none" xmlns="http://www.w3.org/2000/svg">
<path d="M150.641 27.5392L151.02 28.63C150.1 29.1042 149.446 29.3793 148.118 29.3793C145.623 29.3793 142.92 27.8712 142.92 24.6937V7.91479H145.927V24.5609C145.927 26.6476 147.293 28.0135 149.038 28.0135C150.034 28.0135 150.641 27.5392 150.641 27.5392Z" fill="#101820"/>
<path d="M178.707 29.1422V14.3457H180.556L181.239 16.4324C182.33 15.0001 184.18 14.1465 186.437 14.1465C188.827 14.1465 190.705 15.1424 191.663 16.8118C192.792 15.1329 194.708 14.1465 197.165 14.1465C200.826 14.1465 203.662 16.4324 203.662 19.8185V29.1517H200.171V20.3686C200.171 17.2576 198.663 15.1424 196.339 15.1424C194.016 15.1424 192.441 17.3619 192.441 20.473V29.1517H189.396V20.3686C189.396 17.2576 187.888 15.1424 185.602 15.1424C183.316 15.1424 181.676 17.3619 181.676 20.473V29.1517H178.697L178.707 29.1422Z" fill="#101820"/>
<path d="M162.668 14.3361H165.674V23.4322C165.674 26.439 167.315 28.317 169.772 28.317C172.229 28.317 173.974 26.3726 173.974 23.3564V14.3361H176.981V29.1327H175.131L174.448 27.046C173.215 28.5162 171.337 29.3698 168.909 29.3698C165.153 29.3698 162.658 27.2831 162.658 23.9349V14.3267L162.668 14.3361Z" fill="#101820"/>
<path d="M152.414 29.1422V14.3457H154.264L155.26 17.3903C156.322 15.37 158.409 14.1465 161.074 14.1465V16.8118C161.074 16.8118 160.524 16.5367 159.774 16.5367C157.451 16.5367 155.402 18.2155 155.402 20.7765V29.1517H152.424L152.414 29.1422Z" fill="#101820"/>
<path d="M140.349 19.3631H137.475C137.475 16.935 135.796 15.1234 133.51 15.1234C130.702 15.1234 128.995 17.7886 128.995 21.7534C128.995 25.7181 130.702 28.317 133.51 28.317C135.796 28.317 137.475 26.4674 137.475 24.0772H140.349C140.349 27.1503 137.513 29.3793 133.548 29.3793C128.9 29.3793 125.922 26.3062 125.922 21.7534C125.922 17.2006 128.9 14.1274 133.548 14.1274C137.513 14.1274 140.349 16.2805 140.349 19.3537V19.3631Z" fill="#101820"/>
<path d="M124.594 21.8957C124.594 17.1437 121.654 14.137 117.111 14.137C112.567 14.137 109.561 17.1816 109.561 21.7629C109.561 26.3441 112.605 29.3888 117.319 29.3888C121.18 29.3888 124.186 27.3401 124.186 24.7696H121.483C121.483 26.752 119.709 28.3265 117.452 28.3265C114.644 28.3265 112.766 25.8983 112.634 22.2371H124.594V21.8957ZM112.624 21.2128C112.757 17.5895 114.474 15.1234 117.101 15.1234C119.728 15.1234 121.445 17.5516 121.54 21.2128H112.615H112.624Z" fill="#101820"/>
<path d="M100.977 14.137C98.6533 14.137 96.7373 15.0949 95.5043 16.7358L94.755 14.3456H92.877V36.55H95.8837V27.1978C97.0788 28.6016 98.862 29.3888 100.977 29.3888C105.179 29.3888 107.987 26.3157 107.987 21.7629C107.987 17.2101 105.179 14.137 100.977 14.137ZM100.427 28.317C97.7238 28.317 95.9122 25.6802 95.9122 21.7534C95.9122 17.8266 97.7238 15.1234 100.427 15.1234C103.13 15.1234 104.942 17.7887 104.942 21.7534C104.942 25.7181 103.092 28.317 100.427 28.317Z" fill="#101820"/>
<path d="M82.2736 19.6004C77.8347 18.263 74.0027 16.7264 74.0027 13.1032C74.0027 9.68857 77.3889 7.36475 82.3116 7.36475C87.2343 7.36475 90.6868 9.7929 90.6868 13.549H87.4429C87.4429 10.5422 85.3562 8.52191 81.9417 8.52191C78.897 8.52191 76.8103 10.0585 76.8103 12.1452C76.8103 14.5733 79.817 15.5977 83.5446 16.7644C86.8928 17.7887 91.1705 19.3253 91.1705 23.2616C91.1705 26.8848 87.6137 29.3794 82.3495 29.3794C77.0853 29.3794 73.6328 26.8469 73.6328 23.1572H76.8482C76.8482 26.164 79.1341 28.1843 82.7574 28.1843C86.1435 28.1843 88.4009 26.477 88.4009 24.3239C88.4009 21.5543 84.882 20.3971 82.2831 19.6099L82.2736 19.6004Z" fill="#101820"/>
<path d="M60.5325 7.36475V16.2522C59.2995 14.8863 57.5542 14.137 55.4391 14.137C51.2372 14.137 48.4297 17.1817 48.4297 21.7629C48.4297 26.3442 51.2372 29.3889 55.4391 29.3889C57.7629 29.3889 59.7073 28.3929 60.9404 26.752L61.7276 29.1423H63.5772V7.36475H60.5325ZM56.0272 28.3171C53.3239 28.3171 51.5123 25.6802 51.5123 21.6871C51.5123 17.6939 53.3239 15.1235 56.0272 15.1235C58.7304 15.1235 60.4661 17.7887 60.4661 21.6871C60.4661 25.5854 58.7209 28.3171 56.0272 28.3171Z" fill="#101820"/>
<path d="M32.5059 14.3361H35.4841V23.4322C35.4841 26.439 37.125 28.317 39.6196 28.317C42.1141 28.317 43.8214 26.3726 43.8214 23.3564V14.3361H46.8282V29.1327H44.9122L44.2293 27.046C43.0342 28.5162 41.1182 29.3698 38.7565 29.3698C35.0004 29.3698 32.5059 27.2831 32.5059 23.9349V14.3267V14.3361Z" fill="#101820"/>
<path d="M23.343 14.137C18.8282 14.137 15.793 17.1816 15.793 21.7629C15.793 26.3441 18.8376 29.3888 23.343 29.3888C27.8484 29.3888 30.8646 26.3157 30.8646 21.7629C30.8646 17.2101 27.8579 14.137 23.343 14.137ZM23.343 28.317C20.6777 28.317 18.8661 25.6802 18.8661 21.687C18.8661 17.6938 20.6777 15.1234 23.343 15.1234C26.0083 15.1234 27.8199 17.7887 27.8199 21.687C27.8199 25.5853 26.0462 28.317 23.343 28.317Z" fill="#101820"/>
<path d="M3.17747 7.36475H0V29.1423H15.8304V27.71H3.17747V7.36475Z" fill="#101820"/>
<path d="M213.119 11.5666L221.001 10.6181L213.119 9.67908L216.03 5.3729L211.772 8.25633L210.833 0.450195L209.884 8.32273L205.531 5.3729L208.405 9.6032L133.492 10.3715V10.8647L208.405 11.6425L205.531 15.8633L209.884 12.9135L210.833 20.786L211.772 12.9799L216.03 15.8633L213.119 11.5666Z" fill="url(#paint0_linear_3808_2862)"/>
<defs>
<linearGradient id="paint0_linear_3808_2862" x1="133.492" y1="10.6181" x2="221.001" y2="10.6181" gradientUnits="userSpaceOnUse">
<stop offset="0.25" stop-color="#101820"/>
<stop offset="0.49" stop-color="#0077C8"/>
<stop offset="0.52" stop-color="#2280D0"/>
<stop offset="0.58" stop-color="#558EDD"/>
<stop offset="0.63" stop-color="#7D9AE7"/>
<stop offset="0.68" stop-color="#9AA2EE"/>
<stop offset="0.73" stop-color="#ABA7F3"/>
<stop offset="0.76" stop-color="#B2A9F5"/>
<stop offset="0.77" stop-color="#B4ABF4"/>
<stop offset="1" stop-color="#DDDAE8"/>
</linearGradient>
</defs>
</svg>
