<svg width="15" height="15" viewBox="0 0 15 15" fill="none" xmlns="http://www.w3.org/2000/svg">
<path d="M8 3.5C8 3.22386 7.77614 3 7.5 3C7.22386 3 7 3.22386 7 3.5L8 3.5ZM7.14645 11.8536C7.34171 12.0488 7.65829 12.0488 7.85355 11.8536L11.0355 8.67157C11.2308 8.47631 11.2308 8.15973 11.0355 7.96447C10.8403 7.7692 10.5237 7.7692 10.3284 7.96447L7.5 10.7929L4.67157 7.96447C4.47631 7.7692 4.15973 7.7692 3.96447 7.96447C3.7692 8.15973 3.7692 8.47631 3.96447 8.67157L7.14645 11.8536ZM7 3.5L7 11.5L8 11.5L8 3.5L7 3.5Z" fill="#101820"/>
</svg>
