<svg width="1440" height="1237" viewBox="0 0 1440 1237" fill="none" xmlns="http://www.w3.org/2000/svg">
<g opacity="0.3">
<path d="M287.922 6H0V313.453H287.922V6Z" stroke="#D8D3E5" stroke-width="0.5" stroke-miterlimit="10"/>
<path d="M575.843 6H287.921V313.453H575.843V6Z" stroke="#D8D3E5" stroke-width="0.5" stroke-miterlimit="10"/>
<path d="M863.765 6H575.843V313.453H863.765V6Z" stroke="#D8D3E5" stroke-width="0.5" stroke-miterlimit="10"/>
<path d="M1151.69 6H863.765V313.453H1151.69V6Z" stroke="#D8D3E5" stroke-width="0.5" stroke-miterlimit="10"/>
<path d="M1439.61 6H1151.69V313.453H1439.61V6Z" stroke="#D8D3E5" stroke-width="0.5" stroke-miterlimit="10"/>
<path d="M1439.61 313.455H1151.69V620.908H1439.61V313.455Z" stroke="#D8D3E5" stroke-width="0.5" stroke-miterlimit="10"/>
<path d="M1439.61 620.918H1151.69V928.371H1439.61V620.918Z" stroke="#D8D3E5" stroke-width="0.5" stroke-miterlimit="10"/>
<path d="M287.922 313.455H0V620.908H287.922V313.455Z" stroke="#D8D3E5" stroke-width="0.5" stroke-miterlimit="10"/>
<path d="M575.843 313.455H287.921V620.908H575.843V313.455Z" stroke="#D8D3E5" stroke-width="0.5" stroke-miterlimit="10"/>
<path d="M863.765 313.455H575.843V620.908H863.765V313.455Z" stroke="#D8D3E5" stroke-width="0.5" stroke-miterlimit="10"/>
<path d="M1151.69 313.455H863.765V620.908H1151.69V313.455Z" stroke="#D8D3E5" stroke-width="0.5" stroke-miterlimit="10"/>
<path d="M287.922 620.918H0V928.371H287.922V620.918Z" stroke="#D8D3E5" stroke-width="0.5" stroke-miterlimit="10"/>
<path d="M575.843 620.918H287.921V928.371H575.843V620.918Z" stroke="#D8D3E5" stroke-width="0.5" stroke-miterlimit="10"/>
<path d="M863.765 620.918H575.843V928.371H863.765V620.918Z" stroke="#D8D3E5" stroke-width="0.5" stroke-miterlimit="10"/>
<path d="M1151.69 620.918H863.765V928.371H1151.69V620.918Z" stroke="#D8D3E5" stroke-width="0.5" stroke-miterlimit="10"/>
<path d="M1439.61 928.371H1151.69V1235.82H1439.61V928.371Z" stroke="#D8D3E5" stroke-width="0.5" stroke-miterlimit="10"/>
<path d="M287.922 928.371H0V1235.82H287.922V928.371Z" stroke="#D8D3E5" stroke-width="0.5" stroke-miterlimit="10"/>
<path d="M575.843 928.371H287.921V1235.82H575.843V928.371Z" stroke="#D8D3E5" stroke-width="0.5" stroke-miterlimit="10"/>
<path d="M863.765 928.371H575.843V1235.82H863.765V928.371Z" stroke="#D8D3E5" stroke-width="0.5" stroke-miterlimit="10"/>
<path d="M1151.69 928.371H863.765V1235.82H1151.69V928.371Z" stroke="#D8D3E5" stroke-width="0.5" stroke-miterlimit="10"/>
</g>
<rect width="1440" height="708" fill="url(#paint0_linear_2942_5126)"/>
<path d="M287.441 895.999L287.441 1109.29" stroke="#B2A9F5" stroke-width="0.42" stroke-miterlimit="10"/>
<path d="M321.757 928.25L253.135 928.25" stroke="#B2A9F5" stroke-width="0.42" stroke-miterlimit="10"/>
<path d="M275.26 916.049L299.633 940.439" stroke="#B2A9F5" stroke-width="0.42" stroke-miterlimit="10"/>
<path d="M299.633 916.049L275.26 940.439" stroke="#B2A9F5" stroke-width="0.42" stroke-miterlimit="10"/>
<path d="M575.8 347.67V279" stroke="#B2A9F5" stroke-width="0.42" stroke-miterlimit="10"/>
<path d="M587.982 301.141L563.609 325.531" stroke="#B2A9F5" stroke-width="0.42" stroke-miterlimit="10"/>
<path d="M587.982 325.531L563.609 301.141" stroke="#B2A9F5" stroke-width="0.42" stroke-miterlimit="10"/>
<path d="M667.936 313.34H483.664" stroke="#B2A9F5" stroke-width="0.42" stroke-miterlimit="10"/>
<path d="M1151.54 94.8249L1151.54 214.545" stroke="#B2A9F5" stroke-width="0.42" stroke-miterlimit="10"/>
<path d="M1185.85 127.074L1117.22 127.074" stroke="#B2A9F5" stroke-width="0.42" stroke-miterlimit="10"/>
<path d="M1139.35 114.884L1163.72 139.264" stroke="#B2A9F5" stroke-width="0.42" stroke-miterlimit="10"/>
<path d="M1163.72 114.884L1139.35 139.264" stroke="#B2A9F5" stroke-width="0.42" stroke-miterlimit="10"/>
<path d="M863.73 902.001L863.73 980.711" stroke="#B2A9F5" stroke-width="0.42" stroke-miterlimit="10"/>
<path d="M898.046 928.672L829.424 928.672" stroke="#B2A9F5" stroke-width="0.42" stroke-miterlimit="10"/>
<path d="M851.548 916.481L875.921 940.871" stroke="#B2A9F5" stroke-width="0.42" stroke-miterlimit="10"/>
<path d="M875.921 916.481L851.548 940.871" stroke="#B2A9F5" stroke-width="0.42" stroke-miterlimit="10"/>
<defs>
<linearGradient id="paint0_linear_2942_5126" x1="720" y1="0" x2="720" y2="644.812" gradientUnits="userSpaceOnUse">
<stop stop-color="#101820"/>
<stop offset="1" stop-color="#101820" stop-opacity="0"/>
</linearGradient>
</defs>
</svg>
