<svg width="177" height="30" viewBox="0 0 177 30" fill="none" xmlns="http://www.w3.org/2000/svg">
<path d="M15.6768 3.10156C15.9731 2.43128 16.883 2.38982 17.2559 2.97656L17.3232 3.10156L20.3262 9.90137C20.5897 10.498 21.1394 10.9154 21.7783 11.0127L21.9072 11.0273L29.542 11.6621C30.2952 11.7247 30.6209 12.6142 30.1475 13.1494L30.042 13.252L24.3604 17.9658C23.837 18.4001 23.5877 19.0781 23.6992 19.7422L23.7266 19.874L25.4355 26.9434C25.6098 27.6644 24.8949 28.2524 24.2402 27.9971L24.1104 27.9346L17.4502 24.0898C16.8991 23.7717 16.2282 23.7519 15.6621 24.0303L15.5498 24.0898L8.88965 27.9346C8.24733 28.3054 7.48138 27.7858 7.54102 27.0859L7.56445 26.9434L9.27344 19.874C9.43311 19.2131 9.22662 18.5212 8.74023 18.0557L8.63965 17.9658L2.95801 13.252C2.37618 12.7692 2.61856 11.852 3.31348 11.6846L3.45801 11.6621L11.0928 11.0273C11.7427 10.9733 12.3165 10.5906 12.6172 10.0186L12.6738 9.90137L15.6768 3.10156Z" stroke="#101820" stroke-opacity="0.4"/>
<path d="M51.6768 3.10156C51.9731 2.43128 52.883 2.38982 53.2559 2.97656L53.3232 3.10156L56.3262 9.90137C56.5897 10.498 57.1394 10.9154 57.7783 11.0127L57.9072 11.0273L65.542 11.6621C66.2952 11.7247 66.6209 12.6142 66.1475 13.1494L66.042 13.252L60.3604 17.9658C59.837 18.4001 59.5877 19.0781 59.6992 19.7422L59.7266 19.874L61.4355 26.9434C61.6098 27.6644 60.8949 28.2524 60.2402 27.9971L60.1104 27.9346L53.4502 24.0898C52.8991 23.7717 52.2282 23.7519 51.6621 24.0303L51.5498 24.0898L44.8896 27.9346C44.2473 28.3054 43.4814 27.7858 43.541 27.0859L43.5645 26.9434L45.2734 19.874C45.4331 19.2131 45.2266 18.5212 44.7402 18.0557L44.6396 17.9658L38.958 13.252C38.3762 12.7692 38.6186 11.852 39.3135 11.6846L39.458 11.6621L47.0928 11.0273C47.7427 10.9733 48.3165 10.5906 48.6172 10.0186L48.6738 9.90137L51.6768 3.10156Z" stroke="#101820" stroke-opacity="0.4"/>
<path d="M87.6768 3.10156C87.9731 2.43128 88.883 2.38982 89.2559 2.97656L89.3232 3.10156L92.3262 9.90137C92.5897 10.498 93.1394 10.9154 93.7783 11.0127L93.9072 11.0273L101.542 11.6621C102.295 11.7247 102.621 12.6142 102.147 13.1494L102.042 13.252L96.3604 17.9658C95.837 18.4001 95.5877 19.0781 95.6992 19.7422L95.7266 19.874L97.4355 26.9434C97.6098 27.6644 96.8949 28.2524 96.2402 27.9971L96.1104 27.9346L89.4502 24.0898C88.8991 23.7717 88.2282 23.7519 87.6621 24.0303L87.5498 24.0898L80.8896 27.9346C80.2473 28.3054 79.4814 27.7858 79.541 27.0859L79.5645 26.9434L81.2734 19.874C81.4331 19.2131 81.2266 18.5212 80.7402 18.0557L80.6396 17.9658L74.958 13.252C74.3762 12.7692 74.6186 11.852 75.3135 11.6846L75.458 11.6621L83.0928 11.0273C83.7427 10.9733 84.3165 10.5906 84.6172 10.0186L84.6738 9.90137L87.6768 3.10156Z" stroke="#101820" stroke-opacity="0.4"/>
<path d="M123.677 3.10156C123.973 2.43128 124.883 2.38982 125.256 2.97656L125.323 3.10156L128.326 9.90137C128.59 10.498 129.139 10.9154 129.778 11.0127L129.907 11.0273L137.542 11.6621C138.295 11.7247 138.621 12.6142 138.147 13.1494L138.042 13.252L132.36 17.9658C131.837 18.4001 131.588 19.0781 131.699 19.7422L131.727 19.874L133.436 26.9434C133.61 27.6644 132.895 28.2524 132.24 27.9971L132.11 27.9346L125.45 24.0898C124.899 23.7717 124.228 23.7519 123.662 24.0303L123.55 24.0898L116.89 27.9346C116.247 28.3054 115.481 27.7858 115.541 27.0859L115.564 26.9434L117.273 19.874C117.433 19.2131 117.227 18.5212 116.74 18.0557L116.64 17.9658L110.958 13.252C110.376 12.7692 110.619 11.852 111.313 11.6846L111.458 11.6621L119.093 11.0273C119.743 10.9733 120.316 10.5906 120.617 10.0186L120.674 9.90137L123.677 3.10156Z" stroke="#101820" stroke-opacity="0.4"/>
<path d="M159.677 3.10156C159.973 2.43128 160.883 2.38982 161.256 2.97656L161.323 3.10156L164.326 9.90137C164.59 10.498 165.139 10.9154 165.778 11.0127L165.907 11.0273L173.542 11.6621C174.295 11.7247 174.621 12.6142 174.147 13.1494L174.042 13.252L168.36 17.9658C167.837 18.4001 167.588 19.0781 167.699 19.7422L167.727 19.874L169.436 26.9434C169.61 27.6644 168.895 28.2524 168.24 27.9971L168.11 27.9346L161.45 24.0898C160.899 23.7717 160.228 23.7519 159.662 24.0303L159.55 24.0898L152.89 27.9346C152.247 28.3054 151.481 27.7858 151.541 27.0859L151.564 26.9434L153.273 19.874C153.433 19.2131 153.227 18.5212 152.74 18.0557L152.64 17.9658L146.958 13.252C146.376 12.7692 146.619 11.852 147.313 11.6846L147.458 11.6621L155.093 11.0273C155.743 10.9733 156.316 10.5906 156.617 10.0186L156.674 9.90137L159.677 3.10156Z" stroke="#101820" stroke-opacity="0.4"/>
</svg>
