<svg width="88" height="16" viewBox="0 0 88 16" fill="none" xmlns="http://www.w3.org/2000/svg">
<path d="M5.08222 14.2962C4.32421 14.7474 3.39576 14.0676 3.59709 13.2087L4.22113 10.5464C4.30643 10.1825 4.18164 9.80135 3.89762 9.55835L1.81446 7.77607C1.14035 7.19933 1.49528 6.09559 2.37921 6.01987L5.16228 5.78147C5.5302 5.74995 5.8508 5.51825 5.99618 5.17881L7.08076 2.64638C7.42698 1.83797 8.57302 1.83796 8.91924 2.64638L10.0038 5.1788C10.1492 5.51825 10.4698 5.74995 10.8377 5.78147L13.6208 6.01987C14.5047 6.09559 14.8596 7.19933 14.1855 7.77607L12.1024 9.55835C11.8184 9.80135 11.6936 10.1825 11.7789 10.5464L12.4029 13.2087C12.6042 14.0676 11.6758 14.7474 10.9178 14.2962L8.51152 12.8637C8.19632 12.6761 7.80368 12.6761 7.48848 12.8637L5.08222 14.2962Z" fill="#101820"/>
<path d="M23.0822 14.2962C22.3242 14.7474 21.3958 14.0676 21.5971 13.2087L22.2211 10.5464C22.3064 10.1825 22.1816 9.80135 21.8976 9.55835L19.8145 7.77607C19.1403 7.19933 19.4953 6.09559 20.3792 6.01987L23.1623 5.78147C23.5302 5.74995 23.8508 5.51825 23.9962 5.17881L25.0808 2.64638C25.427 1.83797 26.573 1.83796 26.9192 2.64638L28.0038 5.1788C28.1492 5.51825 28.4698 5.74995 28.8377 5.78147L31.6208 6.01987C32.5047 6.09559 32.8596 7.19933 32.1855 7.77607L30.1024 9.55835C29.8184 9.80135 29.6936 10.1825 29.7789 10.5464L30.4029 13.2087C30.6042 14.0676 29.6758 14.7474 28.9178 14.2962L26.5115 12.8637C26.1963 12.6761 25.8037 12.6761 25.4885 12.8637L23.0822 14.2962Z" fill="#101820"/>
<path d="M41.0822 14.2962C40.3242 14.7474 39.3958 14.0676 39.5971 13.2087L40.2211 10.5464C40.3064 10.1825 40.1816 9.80135 39.8976 9.55835L37.8145 7.77607C37.1403 7.19933 37.4953 6.09559 38.3792 6.01987L41.1623 5.78147C41.5302 5.74995 41.8508 5.51825 41.9962 5.17881L43.0808 2.64638C43.427 1.83797 44.573 1.83796 44.9192 2.64638L46.0038 5.1788C46.1492 5.51825 46.4698 5.74995 46.8377 5.78147L49.6208 6.01987C50.5047 6.09559 50.8596 7.19933 50.1855 7.77607L48.1024 9.55835C47.8184 9.80135 47.6936 10.1825 47.7789 10.5464L48.4029 13.2087C48.6042 14.0676 47.6758 14.7474 46.9178 14.2962L44.5115 12.8637C44.1963 12.6761 43.8037 12.6761 43.4885 12.8637L41.0822 14.2962Z" fill="#101820"/>
<path d="M59.0822 14.2962C58.3242 14.7474 57.3958 14.0676 57.5971 13.2087L58.2211 10.5464C58.3064 10.1825 58.1816 9.80135 57.8976 9.55835L55.8145 7.77607C55.1403 7.19933 55.4953 6.09559 56.3792 6.01987L59.1623 5.78147C59.5302 5.74995 59.8508 5.51825 59.9962 5.17881L61.0808 2.64638C61.427 1.83797 62.573 1.83796 62.9192 2.64638L64.0038 5.1788C64.1492 5.51825 64.4698 5.74995 64.8377 5.78147L67.6208 6.01987C68.5047 6.09559 68.8596 7.19933 68.1855 7.77607L66.1024 9.55835C65.8184 9.80135 65.6936 10.1825 65.7789 10.5464L66.4029 13.2087C66.6042 14.0676 65.6758 14.7474 64.9178 14.2962L62.5115 12.8637C62.1963 12.6761 61.8037 12.6761 61.4885 12.8637L59.0822 14.2962Z" fill="#101820"/>
<path d="M77.0822 14.2962C76.3242 14.7474 75.3958 14.0676 75.5971 13.2087L76.2211 10.5464C76.3064 10.1825 76.1816 9.80135 75.8976 9.55835L73.8145 7.77607C73.1403 7.19933 73.4953 6.09559 74.3792 6.01987L77.1623 5.78147C77.5302 5.74995 77.8508 5.51825 77.9962 5.17881L79.0808 2.64638C79.427 1.83797 80.573 1.83796 80.9192 2.64638L82.0038 5.1788C82.1492 5.51825 82.4698 5.74995 82.8377 5.78147L85.6208 6.01987C86.5047 6.09559 86.8596 7.19933 86.1855 7.77607L84.1024 9.55835C83.8184 9.80135 83.6936 10.1825 83.7789 10.5464L84.4029 13.2087C84.6042 14.0676 83.6758 14.7474 82.9178 14.2962L80.5115 12.8637C80.1963 12.6761 79.8037 12.6761 79.4885 12.8637L77.0822 14.2962Z" fill="#101820"/>
</svg>
