<svg width="15" height="15" viewBox="0 0 15 15" fill="none" xmlns="http://www.w3.org/2000/svg">
<path d="M7 11.5C7 11.7761 7.22386 12 7.5 12C7.77614 12 8 11.7761 8 11.5L7 11.5ZM7.85355 3.14645C7.65829 2.95118 7.34171 2.95118 7.14645 3.14645L3.96447 6.32843C3.7692 6.52369 3.7692 6.84027 3.96447 7.03553C4.15973 7.2308 4.47631 7.2308 4.67157 7.03553L7.5 4.20711L10.3284 7.03553C10.5237 7.2308 10.8403 7.2308 11.0355 7.03553C11.2308 6.84027 11.2308 6.52369 11.0355 6.32843L7.85355 3.14645ZM8 11.5L8 3.5L7 3.5L7 11.5L8 11.5Z" fill="#101820"/>
</svg>
