<svg width="221" height="37" viewBox="0 0 221 37" fill="none" xmlns="http://www.w3.org/2000/svg">
<path d="M150.641 27.5392L151.02 28.6299C150.1 29.1042 149.446 29.3793 148.118 29.3793C145.623 29.3793 142.92 27.8711 142.92 24.6937V7.91475H145.927V24.5609C145.927 26.6476 147.293 28.0134 149.038 28.0134C150.034 28.0134 150.641 27.5392 150.641 27.5392Z" fill="white"/>
<path d="M178.697 29.1421V14.3456H180.547L181.229 16.4323C182.32 15 184.17 14.1464 186.427 14.1464C188.817 14.1464 190.695 15.1423 191.653 16.8117C192.782 15.1328 194.698 14.1464 197.155 14.1464C200.816 14.1464 203.652 16.4323 203.652 19.8184V29.1516H200.161V20.3685C200.161 17.2575 198.653 15.1423 196.33 15.1423C194.006 15.1423 192.431 17.3618 192.431 20.4729V29.1516H189.387V20.3685C189.387 17.2575 187.878 15.1423 185.593 15.1423C183.307 15.1423 181.666 17.3618 181.666 20.4729V29.1516H178.688L178.697 29.1421Z" fill="white"/>
<path d="M162.668 14.3361H165.674V23.4322C165.674 26.4389 167.315 28.3169 169.772 28.3169C172.229 28.3169 173.974 26.3725 173.974 23.3563V14.3361H176.981V29.1326H175.131L174.448 27.046C173.215 28.5161 171.337 29.3698 168.909 29.3698C165.153 29.3698 162.658 27.2831 162.658 23.9349V14.3266L162.668 14.3361Z" fill="white"/>
<path d="M152.414 29.1421V14.3456H154.264L155.26 17.3902C156.322 15.3699 158.409 14.1464 161.074 14.1464V16.8117C161.074 16.8117 160.524 16.5366 159.774 16.5366C157.451 16.5366 155.402 18.2154 155.402 20.7764V29.1516H152.424L152.414 29.1421Z" fill="white"/>
<path d="M140.349 19.3631H137.475C137.475 16.935 135.796 15.1233 133.51 15.1233C130.702 15.1233 128.995 17.7886 128.995 21.7533C128.995 25.7181 130.702 28.3169 133.51 28.3169C135.796 28.3169 137.475 26.4674 137.475 24.0772H140.349C140.349 27.1503 137.512 29.3793 133.548 29.3793C128.9 29.3793 125.922 26.3061 125.922 21.7533C125.922 17.2006 128.9 14.1274 133.548 14.1274C137.512 14.1274 140.349 16.2805 140.349 19.3536V19.3631Z" fill="white"/>
<path d="M124.584 21.8956C124.584 17.1436 121.644 14.1369 117.101 14.1369C112.558 14.1369 109.551 17.1816 109.551 21.7628C109.551 26.3441 112.595 29.3887 117.309 29.3887C121.17 29.3887 124.177 27.34 124.177 24.7696H121.473C121.473 26.7519 119.7 28.3264 117.442 28.3264C114.635 28.3264 112.757 25.8983 112.624 22.2371H124.584V21.8956ZM112.624 21.2127C112.757 17.5894 114.473 15.1233 117.101 15.1233C119.728 15.1233 121.445 17.5515 121.54 21.2127H112.614H112.624Z" fill="white"/>
<path d="M100.967 14.1369C98.6435 14.1369 96.7276 15.0949 95.4945 16.7358L94.7452 14.3456H92.8672V36.5499H95.8739V27.1977C97.069 28.6015 98.8522 29.3887 100.967 29.3887C105.169 29.3887 107.977 26.3156 107.977 21.7628C107.977 17.21 105.169 14.1369 100.967 14.1369ZM100.427 28.3169C97.7235 28.3169 95.9119 25.6801 95.9119 21.7533C95.9119 17.8266 97.7235 15.1233 100.427 15.1233C103.13 15.1233 104.942 17.7886 104.942 21.7533C104.942 25.7181 103.092 28.3169 100.427 28.3169Z" fill="white"/>
<path d="M82.2736 19.6002C77.8346 18.2629 74.0027 16.7263 74.0027 13.103C74.0027 9.68844 77.3889 7.36462 82.3116 7.36462C87.2343 7.36462 90.6868 9.79278 90.6868 13.5488H87.4429C87.4429 10.5421 85.3562 8.52179 81.9416 8.52179C78.897 8.52179 76.8103 10.0584 76.8103 12.1451C76.8103 14.5732 79.817 15.5976 83.5446 16.7642C86.8928 17.7886 91.1705 19.3252 91.1705 23.2614C91.1705 26.8847 87.6137 29.3793 82.3495 29.3793C77.0853 29.3793 73.6328 26.8468 73.6328 23.1571H76.8482C76.8482 26.1639 79.1341 28.1842 82.7574 28.1842C86.1435 28.1842 88.4009 26.4769 88.4009 24.3238C88.4009 21.5542 84.882 20.397 82.2831 19.6097L82.2736 19.6002Z" fill="white"/>
<path d="M60.5325 7.36462V16.252C59.2995 14.8862 57.5543 14.1369 55.4391 14.1369C51.2373 14.1369 48.4297 17.1816 48.4297 21.7628C48.4297 26.3441 51.2373 29.3887 55.4391 29.3887C57.7629 29.3887 59.7073 28.3928 60.9404 26.7519L61.7276 29.1421H63.5772V7.36462H60.5325ZM56.0177 28.3169C53.3145 28.3169 51.5028 25.6801 51.5028 21.6869C51.5028 17.6938 53.3145 15.1233 56.0177 15.1233C58.7209 15.1233 60.4566 17.7886 60.4566 21.6869C60.4566 25.5853 58.7114 28.3169 56.0177 28.3169Z" fill="white"/>
<path d="M32.5059 14.3361H35.4842V23.4322C35.4842 26.4389 37.125 28.3169 39.6196 28.3169C42.1141 28.3169 43.8215 26.3725 43.8215 23.3563V14.3361H46.8282V29.1326H44.9122L44.2293 27.046C43.0342 28.5161 41.1182 29.3698 38.7565 29.3698C35.0004 29.3698 32.5059 27.2831 32.5059 23.9349V14.3266V14.3361Z" fill="white"/>
<path d="M23.343 14.1369C18.8282 14.1369 15.793 17.1816 15.793 21.7628C15.793 26.3441 18.8376 29.3887 23.343 29.3887C27.8484 29.3887 30.8646 26.3156 30.8646 21.7628C30.8646 17.21 27.8579 14.1369 23.343 14.1369ZM23.343 28.3169C20.6777 28.3169 18.8661 25.6801 18.8661 21.6869C18.8661 17.6938 20.6777 15.1233 23.343 15.1233C26.0083 15.1233 27.8199 17.7886 27.8199 21.6869C27.8199 25.5853 26.0462 28.3169 23.343 28.3169Z" fill="white"/>
<path d="M3.17747 7.36463H0V29.1421H15.8209V27.7099H3.17747V7.36463Z" fill="white"/>
<path d="M213.109 11.5665L221 10.618L213.109 9.67897L216.03 5.37279L211.762 8.25623L210.832 0.450089L209.884 8.32262L205.53 5.37279L208.395 9.60309L133.482 10.3714V10.8646L208.395 11.6424L205.53 15.8632L209.884 12.9134L210.832 20.7859L211.762 12.9797L216.03 15.8632L213.109 11.5665Z" fill="url(#paint0_linear_3808_1421)"/>
<defs>
<linearGradient id="paint0_linear_3808_1421" x1="133.482" y1="10.618" x2="221" y2="10.618" gradientUnits="userSpaceOnUse">
<stop offset="0.25" stop-color="white"/>
<stop offset="0.49" stop-color="#0077C8"/>
<stop offset="0.52" stop-color="#2280D0"/>
<stop offset="0.58" stop-color="#558EDD"/>
<stop offset="0.63" stop-color="#7D9AE7"/>
<stop offset="0.68" stop-color="#9AA2EE"/>
<stop offset="0.73" stop-color="#ABA7F3"/>
<stop offset="0.76" stop-color="#B2A9F5"/>
<stop offset="0.77" stop-color="#B4ABF4"/>
<stop offset="1" stop-color="#DDDAE8"/>
</linearGradient>
</defs>
</svg>
